<svg xmlns="http://www.w3.org/2000/svg" version="1.1" xmlns:xlink="http://www.w3.org/1999/xlink" width="1000" height="1000"><style>
    #light-icon {
      display: inline;
    }
    #dark-icon {
      display: none;
    }

    @media (prefers-color-scheme: dark) {
      #light-icon {
        display: none;
      }
      #dark-icon {
        display: inline;
      }
    }
  </style><g id="light-icon"><svg xmlns="http://www.w3.org/2000/svg" version="1.1" xmlns:xlink="http://www.w3.org/1999/xlink" width="1000" height="1000"><g><g transform="matrix(0.5162622612287042,0,0,0.5162622612287042,-5.684341886080802e-14,13.93908105317496)"><svg xmlns="http://www.w3.org/2000/svg" version="1.1" xmlns:xlink="http://www.w3.org/1999/xlink" width="1937" height="1883"><svg viewBox="0 0 1937 1883" fill="none" xmlns="http://www.w3.org/2000/svg">
<circle cx="1377.54" cy="748.323" r="101.728" transform="rotate(-22.6155 1377.54 748.323)" fill="black"></circle>
<path fill-rule="evenodd" clip-rule="evenodd" d="M1191.72 548.029C1259.43 710.568 1219.43 891.071 1104.42 1010.14C1100.78 1013.91 1098.97 1015.79 1097.81 1018.46C1096.96 1020.44 1096.38 1023.82 1096.54 1025.97C1096.75 1028.87 1097.46 1030.4 1098.87 1033.47C1099.81 1035.51 1100.88 1037.53 1102.07 1039.51C1107.67 1048.84 1115.34 1056.17 1124.13 1061.27C1126.77 1062.81 1128.1 1063.58 1130.63 1064.1C1132.54 1064.5 1135.51 1064.48 1137.42 1064.05C1139.94 1063.48 1142.03 1062.21 1146.21 1059.69C1157.35 1052.97 1169.11 1047 1181.48 1041.84C1316.5 985.597 1471.55 1049.46 1527.8 1184.48C1584.05 1319.5 1520.19 1474.55 1385.17 1530.8C1250.15 1587.05 1095.09 1523.19 1038.84 1388.17C1002.85 1301.76 1016.04 1207.14 1065.6 1135.47C1068.02 1131.98 1069.23 1130.23 1069.95 1128.08C1070.49 1126.45 1070.84 1123.88 1070.76 1122.16C1070.64 1119.9 1070.2 1118.64 1069.33 1116.12C1067.94 1112.1 1066.11 1108.16 1063.83 1104.37C1056.51 1092.19 1045.69 1083.42 1033.43 1078.56C1031.04 1077.62 1029.85 1077.14 1027.66 1076.91C1026.02 1076.74 1023.47 1076.94 1021.88 1077.37C1019.76 1077.93 1018.06 1078.93 1014.67 1080.93C997.734 1090.93 979.908 1099.87 961.24 1107.65C835.997 1159.82 700.088 1148.05 589.835 1087.28C589.403 1087.04 590.483 1087.63 590.328 1087.55C583.672 1084.07 572.7 1087.3 568.995 1093.84C568.908 1093.99 570.923 1090.25 570.117 1091.75C563.777 1103.52 561.615 1116.42 563.12 1128.76C563.37 1130.8 563.495 1131.83 564.053 1133.44C564.491 1134.7 565.343 1136.36 566.116 1137.45C567.101 1138.84 568.371 1140 570.91 1142.33C578.37 1149.17 585.298 1156.81 591.569 1165.22C645.402 1237.45 630.487 1339.65 558.255 1393.48C486.023 1447.32 383.826 1432.4 329.993 1360.17C276.159 1287.94 291.074 1185.74 363.306 1131.91C402.965 1102.35 451.657 1093.52 496.417 1103.52C500.846 1104.51 503.061 1105 505.294 1104.87C507.034 1104.77 509.428 1104.18 511.013 1103.45C513.048 1102.52 514.073 1101.65 516.122 1099.9C521.826 1095.04 526.741 1089.05 530.51 1082.05C533.221 1077.02 535.168 1071.78 536.391 1066.46C537.095 1063.4 537.447 1061.87 537.151 1059.18C536.932 1057.18 535.892 1054.18 534.83 1052.47C533.398 1050.17 531.507 1048.65 527.725 1045.6C474.006 1002.29 430.018 945.343 401.618 877.169C310.728 658.988 413.919 408.437 632.1 317.547C800.754 247.29 988.75 293 1107.39 418.149C1108.53 419.35 1109.1 419.951 1109.81 420.547C1110.35 420.997 1111.22 421.619 1111.83 421.981C1112.62 422.459 1113.12 422.684 1114.11 423.132C1129.28 430.01 1147.17 430.814 1163.76 423.901C1182.73 415.999 1195.73 399.801 1200.29 381.27C1200.58 380.114 1200.72 379.535 1200.84 378.553C1200.93 377.78 1200.97 376.703 1200.93 375.925C1200.88 374.937 1200.72 373.957 1200.38 371.997C1187.8 298.69 1226.91 223.797 1298.48 193.982C1381.64 159.339 1477.14 198.67 1511.78 281.829C1546.42 364.989 1507.09 460.486 1423.93 495.128C1358.59 522.349 1285.63 503.896 1240.56 454.394C1236.67 450.131 1234.73 447.999 1232.25 446.69C1230.32 445.676 1227.31 444.897 1225.13 444.852C1222.32 444.793 1220.71 445.337 1217.5 446.426C1216.15 446.882 1214.81 447.388 1213.48 447.944C1188.26 458.448 1173.6 483.609 1175.27 509.424C1175.34 510.557 1175.38 511.124 1175.56 512.085C1175.7 512.809 1176 513.902 1176.25 514.594C1176.58 515.513 1176.98 516.285 1177.76 517.828C1182.76 527.632 1187.42 537.702 1191.72 548.029Z" fill="black"></path>
</svg></svg></g></g></svg></g><g id="dark-icon"><svg xmlns="http://www.w3.org/2000/svg" version="1.1" xmlns:xlink="http://www.w3.org/1999/xlink" width="1000" height="1000"><g clip-path="url(#SvgjsClipPath1206)"><rect width="1000" height="1000" fill="#ffffff"></rect><g transform="matrix(0.3613835828600929,0,0,0.3613835828600929,150,159.7573567372225)"><svg xmlns="http://www.w3.org/2000/svg" version="1.1" xmlns:xlink="http://www.w3.org/1999/xlink" width="1937" height="1883"><svg viewBox="0 0 1937 1883" fill="none" xmlns="http://www.w3.org/2000/svg">
<circle cx="1377.54" cy="748.323" r="101.728" transform="rotate(-22.6155 1377.54 748.323)" fill="black"></circle>
<path fill-rule="evenodd" clip-rule="evenodd" d="M1191.72 548.029C1259.43 710.568 1219.43 891.071 1104.42 1010.14C1100.78 1013.91 1098.97 1015.79 1097.81 1018.46C1096.96 1020.44 1096.38 1023.82 1096.54 1025.97C1096.75 1028.87 1097.46 1030.4 1098.87 1033.47C1099.81 1035.51 1100.88 1037.53 1102.07 1039.51C1107.67 1048.84 1115.34 1056.17 1124.13 1061.27C1126.77 1062.81 1128.1 1063.58 1130.63 1064.1C1132.54 1064.5 1135.51 1064.48 1137.42 1064.05C1139.94 1063.48 1142.03 1062.21 1146.21 1059.69C1157.35 1052.97 1169.11 1047 1181.48 1041.84C1316.5 985.597 1471.55 1049.46 1527.8 1184.48C1584.05 1319.5 1520.19 1474.55 1385.17 1530.8C1250.15 1587.05 1095.09 1523.19 1038.84 1388.17C1002.85 1301.76 1016.04 1207.14 1065.6 1135.47C1068.02 1131.98 1069.23 1130.23 1069.95 1128.08C1070.49 1126.45 1070.84 1123.88 1070.76 1122.16C1070.64 1119.9 1070.2 1118.64 1069.33 1116.12C1067.94 1112.1 1066.11 1108.16 1063.83 1104.37C1056.51 1092.19 1045.69 1083.42 1033.43 1078.56C1031.04 1077.62 1029.85 1077.14 1027.66 1076.91C1026.02 1076.74 1023.47 1076.94 1021.88 1077.37C1019.76 1077.93 1018.06 1078.93 1014.67 1080.93C997.734 1090.93 979.908 1099.87 961.24 1107.65C835.997 1159.82 700.088 1148.05 589.835 1087.28C589.403 1087.04 590.483 1087.63 590.328 1087.55C583.672 1084.07 572.7 1087.3 568.995 1093.84C568.908 1093.99 570.923 1090.25 570.117 1091.75C563.777 1103.52 561.615 1116.42 563.12 1128.76C563.37 1130.8 563.495 1131.83 564.053 1133.44C564.491 1134.7 565.343 1136.36 566.116 1137.45C567.101 1138.84 568.371 1140 570.91 1142.33C578.37 1149.17 585.298 1156.81 591.569 1165.22C645.402 1237.45 630.487 1339.65 558.255 1393.48C486.023 1447.32 383.826 1432.4 329.993 1360.17C276.159 1287.94 291.074 1185.74 363.306 1131.91C402.965 1102.35 451.657 1093.52 496.417 1103.52C500.846 1104.51 503.061 1105 505.294 1104.87C507.034 1104.77 509.428 1104.18 511.013 1103.45C513.048 1102.52 514.073 1101.65 516.122 1099.9C521.826 1095.04 526.741 1089.05 530.51 1082.05C533.221 1077.02 535.168 1071.78 536.391 1066.46C537.095 1063.4 537.447 1061.87 537.151 1059.18C536.932 1057.18 535.892 1054.18 534.83 1052.47C533.398 1050.17 531.507 1048.65 527.725 1045.6C474.006 1002.29 430.018 945.343 401.618 877.169C310.728 658.988 413.919 408.437 632.1 317.547C800.754 247.29 988.75 293 1107.39 418.149C1108.53 419.35 1109.1 419.951 1109.81 420.547C1110.35 420.997 1111.22 421.619 1111.83 421.981C1112.62 422.459 1113.12 422.684 1114.11 423.132C1129.28 430.01 1147.17 430.814 1163.76 423.901C1182.73 415.999 1195.73 399.801 1200.29 381.27C1200.58 380.114 1200.72 379.535 1200.84 378.553C1200.93 377.78 1200.97 376.703 1200.93 375.925C1200.88 374.937 1200.72 373.957 1200.38 371.997C1187.8 298.69 1226.91 223.797 1298.48 193.982C1381.64 159.339 1477.14 198.67 1511.78 281.829C1546.42 364.989 1507.09 460.486 1423.93 495.128C1358.59 522.349 1285.63 503.896 1240.56 454.394C1236.67 450.131 1234.73 447.999 1232.25 446.69C1230.32 445.676 1227.31 444.897 1225.13 444.852C1222.32 444.793 1220.71 445.337 1217.5 446.426C1216.15 446.882 1214.81 447.388 1213.48 447.944C1188.26 458.448 1173.6 483.609 1175.27 509.424C1175.34 510.557 1175.38 511.124 1175.56 512.085C1175.7 512.809 1176 513.902 1176.25 514.594C1176.58 515.513 1176.98 516.285 1177.76 517.828C1182.76 527.632 1187.42 537.702 1191.72 548.029Z" fill="black"></path>
</svg></svg></g></g><defs><clipPath id="SvgjsClipPath1206"><rect width="1000" height="1000" x="0" y="0" rx="350" ry="350"></rect></clipPath></defs></svg></g></svg>